<svg width="12" height="12" viewBox="0 0 12 12" fill="none" xmlns="http://www.w3.org/2000/svg">
<path d="M11 8.37009V2.33509C11 1.73509 10.51 1.29009 9.915 1.34009H9.885C8.835 1.43009 7.24 1.96509 6.35 2.52509L6.265 2.58009C6.12 2.67009 5.88 2.67009 5.735 2.58009L5.61 2.50509C4.72 1.95009 3.13 1.42009 2.08 1.33509C1.485 1.28509 1 1.73509 1 2.33009V8.37009C1 8.85009 1.39 9.30009 1.87 9.36009L2.015 9.38009C3.1 9.52509 4.775 10.0751 5.735 10.6001L5.755 10.6101C5.89 10.6851 6.105 10.6851 6.235 10.6101C7.195 10.0801 8.875 9.52509 9.965 9.38009L10.13 9.36009C10.61 9.30009 11 8.85009 11 8.37009Z" stroke="#E6E6E6" stroke-width="1.5" stroke-linecap="round" stroke-linejoin="round"/>
<path d="M6 2.74512V10.2451" stroke="#E6E6E6" stroke-width="1.5" stroke-linecap="round" stroke-linejoin="round"/>
<path d="M3.875 4.24512H2.75" stroke="#E6E6E6" stroke-width="1.5" stroke-linecap="round" stroke-linejoin="round"/>
<path d="M4.25 5.74512H2.75" stroke="#E6E6E6" stroke-width="1.5" stroke-linecap="round" stroke-linejoin="round"/>
</svg>
