<svg width="12" height="12" viewBox="0 0 12 12" fill="none" xmlns="http://www.w3.org/2000/svg">
<path d="M4.58003 5.435C4.53003 5.43 4.47003 5.43 4.41503 5.435C3.22503 5.395 2.28003 4.42 2.28003 3.22C2.28003 1.995 3.27003 1 4.50003 1C5.72503 1 6.72003 1.995 6.72003 3.22C6.71503 4.42 5.77003 5.395 4.58003 5.435Z" stroke="#E6E6E6" stroke-width="1.5" stroke-linecap="round" stroke-linejoin="round"/>
<path d="M8.20489 2C9.17489 2 9.95489 2.785 9.95489 3.75C9.95489 4.695 9.20489 5.465 8.26989 5.5C8.22989 5.495 8.18489 5.495 8.13989 5.5" stroke="#E6E6E6" stroke-width="1.5" stroke-linecap="round" stroke-linejoin="round"/>
<path d="M2.08011 7.28C0.870107 8.09 0.870107 9.41 2.08011 10.215C3.45511 11.135 5.71011 11.135 7.08511 10.215C8.29511 9.405 8.29511 8.085 7.08511 7.28C5.71511 6.365 3.46011 6.365 2.08011 7.28Z" stroke="#E6E6E6" stroke-width="1.5" stroke-linecap="round" stroke-linejoin="round"/>
<path d="M9.16992 10C9.52992 9.925 9.86992 9.78 10.1499 9.565C10.9299 8.98 10.9299 8.015 10.1499 7.43C9.87492 7.22 9.53992 7.08 9.18492 7" stroke="#E6E6E6" stroke-width="1.5" stroke-linecap="round" stroke-linejoin="round"/>
</svg>
